<svg width="800" height="600">
<rect width="800" height="600" fill="white"/>
<polygon points="120,20 400,160 680,20 540,160 680,300 540,440 680,580 400,440 120,580 260,440 120,300 260,160 " style="fill:blue;fill-opacity:0.5"/>
<line x1="260" y1="160" x2="260" y2="440" stroke="green" stroke-width="4"/>
<line x1="260" y1="160" x2="260" y2="90" stroke="green" stroke-width="4"/>
<line x1="260" y1="440" x2="260" y2="510" stroke="green" stroke-width="4"/>
<line x1="260" y1="440" x2="260" y2="90" stroke="green" stroke-width="4"/>
<line x1="540" y1="160" x2="540" y2="510" stroke="green" stroke-width="4"/>
<line x1="540" y1="160" x2="540" y2="90" stroke="green" stroke-width="4"/>
<line x1="540" y1="440" x2="540" y2="510" stroke="green" stroke-width="4"/>
<line x1="540" y1="440" x2="540" y2="160" stroke="green" stroke-width="4"/>
</svg>
