<svg width="800" height="600">
<rect width="800" height="600" fill="white"/>
<polygon points="171.290466225762,424.444438925013 402.114843650428,308.028673479033 255.591547690586,320.071683697583 255.591547690586,220.716846910804 184.337058145446,220.716846910804 223.476843839477,169.534050998224 324.838853963502,244.802867347903 324.838853963502,79.2114693916132 269.641721311406,79.2114693916132 269.641721311406,20 560.68114982882,109.318989970499 491.433833620927,414.40860204371 566.702649970607,481.648744914356 410.143517129462,452.544796101628 410.143517129462,580 " style="fill:orangered;fill-opacity:0.5"/>
<line x1="324.838853963502" y1="244.802867347903" x2="324.838853963501" y2="314.380124470845" stroke="green" stroke-width="4"/>
<line x1="324.838853963502" y1="244.802867347903" x2="324.838853963501" y2="36.9398083375431" stroke="green" stroke-width="4"/>
<line x1="402.114843650428" y1="308.028673479033" x2="402.114843650451" y2="574.771241970796" stroke="green" stroke-width="4"/>
<line x1="402.114843650428" y1="308.028673479033" x2="402.114843650451" y2="60.6555412297007" stroke="green" stroke-width="4"/>
<line x1="410.143517129462" y1="452.544796101628" x2="410.143517129448" y2="579.999999999983" stroke="green" stroke-width="4"/>
<line x1="410.143517129462" y1="452.544796101628" x2="410.143517129448" y2="63.119513240644" stroke="green" stroke-width="4"/>
<line x1="491.433833620927" y1="414.40860204371" x2="491.433833620945" y2="467.656461369598" stroke="green" stroke-width="4"/>
<line x1="491.433833620927" y1="414.40860204371" x2="491.433833620945" y2="88.067229089283" stroke="green" stroke-width="4"/>
</svg>
