<svg width="800" height="600">
<rect width="800" height="600" fill="white"/>
<polygon points="154.933450242213,102.962959008597 388.05937942897,143.614815082495 162.400122712672,146.933333442839 383.911233531769,221.600000657033 203.051970573656,225.748146554234 252.000118441957,281.333331143223 147.466785984668,337.748143269069 291.822338766083,451.407403270532 218.814934838518,502.014814425462 381.422342708282,521.925924587525 341.600122384156,454.725921630876 385.570488605483,461.362958351564 286.844565332025,400.800000328517 440.326045657614,448.91852065996 441.155673194472,493.718514418145 362.340860083076,575.022218353027 466.044565003508,580 552.326042372449,463.022221638193 286.844565332025,331.111106548381 388.05937942897,310.37036884946 429.540863039725,351.851852460216 600.444562703892,219.940737370404 398.014934510001,263.081484267789 509.185303687978,132.829632464606 564.770488276967,169.333334428389 466.044565003508,20 " style="fill:orchid;fill-opacity:0.5"/>
<line x1="252.000118441957" y1="281.333331143223" x2="252.000118441957" y2="420.053125541352" stroke="green" stroke-width="4"/>
<line x1="252.000118441957" y1="281.333331143223" x2="252.000118441957" y2="224.625483244462" stroke="green" stroke-width="4"/>
<line x1="286.844565332025" y1="331.111106548381" x2="286.844565332037" y2="447.488121787621" stroke="green" stroke-width="4"/>
<line x1="286.844565332025" y1="331.111106548381" x2="286.844565332037" y2="223.826299132773" stroke="green" stroke-width="4"/>
<line x1="286.844565332025" y1="400.800000328517" x2="286.844565332037" y2="447.488121787621" stroke="green" stroke-width="4"/>
<line x1="286.844565332025" y1="400.800000328517" x2="286.844565332037" y2="331.111106548387" stroke="green" stroke-width="4"/>
<line x1="291.822338766083" y1="451.407403270532" x2="291.822338766096" y2="510.954496087517" stroke="green" stroke-width="4"/>
<line x1="291.822338766083" y1="451.407403270532" x2="291.822338766096" y2="403.853592268073" stroke="green" stroke-width="4"/>
<line x1="341.600122384156" y1="454.725921630876" x2="341.600122384162" y2="517.049734590045" stroke="green" stroke-width="4"/>
<line x1="341.600122384156" y1="454.725921630876" x2="341.600122384162" y2="434.389541892914" stroke="green" stroke-width="4"/>
<line x1="383.911233531769" y1="221.600000657033" x2="383.911233531771" y2="311.220398627797" stroke="green" stroke-width="4"/>
<line x1="383.911233531769" y1="221.600000657033" x2="383.911233531771" y2="143.675817225816" stroke="green" stroke-width="4"/>
<line x1="388.05937942897" y1="143.614815082495" x2="388.059379428971" y2="310.370368849472" stroke="green" stroke-width="4"/>
<line x1="388.05937942897" y1="143.614815082495" x2="388.059379428971" y2="40.7960482513195" stroke="green" stroke-width="4"/>
<line x1="398.014934510001" y1="263.081484267789" x2="398.014934510005" y2="320.325923930506" stroke="green" stroke-width="4"/>
<line x1="398.014934510001" y1="263.081484267789" x2="398.014934510005" y2="38.1412337207303" stroke="green" stroke-width="4"/>
<line x1="441.155673194472" y1="493.718514418145" x2="441.155673194485" y2="578.805332278605" stroke="green" stroke-width="4"/>
<line x1="441.155673194472" y1="493.718514418145" x2="441.155673194485" y2="407.784441862773" stroke="green" stroke-width="4"/>
</svg>
