<svg width="800" height="600">
<rect width="800" height="600" fill="white"/>
<polygon points="150.49369880554,251.829797868215 150.49369880554,408.654498570826 196.234234816375,408.654498570826 196.234234816375,460.20335080646 118.547922976713,460.20335080646 118.547922976713,517.560529431457 312.400671122569,517.560529431457 312.400671122569,463.107519083424 266.660135111735,463.107519083424 266.660135111735,491.423086090731 293.523623062843,491.423086090731 293.523623062843,506.669931427676 189.699863816629,506.669931427676 189.699863816629,492.875165146931 137.424966970614,492.875165146931 137.424966970614,480.532477922386 236.166444437846,480.532477922386 236.166444437846,343.310869889884 153.39785691794,343.310869889884 153.39785691794,208.267385523963 363.223488912385,208.267385523963 363.223488912385,372.352481507573 392.991134975893,372.352481507573 392.991134975893,402.120137735644 425.662949316364,402.120137735644 425.662949316364,452.216910915079 361.771409856185,452.216910915079 361.771409856185,486.34080431175 394.443224196656,486.34080431175 394.443224196656,476.902275199605 448.89623454469,476.902275199605 448.89623454469,442.778391967497 471.403485327198,442.778391967497 471.403485327198,497.231402315531 402.429664088038,497.231402315531 402.429664088038,580 634.036502254609,580 634.036502254609,537.163622101566 597.008450745538,537.163622101566 597.008450745538,553.86254649471 610.803217026283,553.86254649471 610.803217026283,564.027110052673 446.718121042672,564.027110052673 446.718121042672,514.656371319057 495.362815165906,514.656371319057 495.362815165906,155.992488677947 127.260403412651,155.992488677947 127.260403412651,216.253825415344 " style="fill:cornflowerblue;fill-opacity:0.5"/>
<line x1="137.424966970614" y1="480.532477922386" x2="137.424966970606" y2="517.560529431466" stroke="green" stroke-width="4"/>
<line x1="137.424966970614" y1="480.532477922386" x2="137.424966970606" y2="460.203350806446" stroke="green" stroke-width="4"/>
<line x1="153.39785691794" y1="208.267385523963" x2="153.397856917944" y2="408.654498570842" stroke="green" stroke-width="4"/>
<line x1="153.39785691794" y1="208.267385523963" x2="153.397856917944" y2="155.992488677948" stroke="green" stroke-width="4"/>
<line x1="196.234234816375" y1="460.20335080646" x2="196.234234816363" y2="480.532477922383" stroke="green" stroke-width="4"/>
<line x1="196.234234816375" y1="460.20335080646" x2="196.234234816363" y2="343.310869889882" stroke="green" stroke-width="4"/>
<line x1="293.523623062843" y1="506.669931427676" x2="293.523623062832" y2="517.560529431426" stroke="green" stroke-width="4"/>
<line x1="293.523623062843" y1="506.669931427676" x2="293.523623062832" y2="463.107519083398" stroke="green" stroke-width="4"/>
<line x1="394.443224196656" y1="476.902275199605" x2="394.44322419666" y2="486.340804311724" stroke="green" stroke-width="4"/>
<line x1="394.443224196656" y1="476.902275199605" x2="394.44322419666" y2="452.216910915077" stroke="green" stroke-width="4"/>
<line x1="425.662949316364" y1="452.216910915079" x2="425.662949316353" y2="476.902275199622" stroke="green" stroke-width="4"/>
<line x1="425.662949316364" y1="452.216910915079" x2="425.662949316353" y2="155.992488677938" stroke="green" stroke-width="4"/>
<line x1="446.718121042672" y1="514.656371319057" x2="446.718121042665" y2="579.999999999989" stroke="green" stroke-width="4"/>
<line x1="446.718121042672" y1="514.656371319057" x2="446.718121042665" y2="497.231402315502" stroke="green" stroke-width="4"/>
<line x1="448.89623454469" y1="442.778391967497" x2="448.896234544687" y2="476.902275199622" stroke="green" stroke-width="4"/>
<line x1="448.89623454469" y1="442.778391967497" x2="448.896234544687" y2="155.992488677938" stroke="green" stroke-width="4"/>
<line x1="471.403485327198" y1="497.231402315531" x2="471.403485327187" y2="514.65637131905" stroke="green" stroke-width="4"/>
<line x1="471.403485327198" y1="497.231402315531" x2="471.403485327187" y2="155.992488677959" stroke="green" stroke-width="4"/>
<line x1="610.803217026283" y1="564.027110052673" x2="610.803217026294" y2="579.999999999989" stroke="green" stroke-width="4"/>
<line x1="610.803217026283" y1="564.027110052673" x2="610.803217026294" y2="537.163622101566" stroke="green" stroke-width="4"/>
</svg>
